<svg width="120" height="27" viewBox="0 0 120 27" fill="none" xmlns="http://www.w3.org/2000/svg">
<g id="Group">
<path id="Vector" d="M38.1164 19.0096C37.6178 19.8326 37.0499 20.5998 36.4128 21.3111C33.6566 24.3938 29.7092 26.3745 25.3048 26.486L22.7424 16.4989L30.8865 11.8541L38.1164 19.0096Z" fill="url(#paint0_linear_2512_4754)"/>
<g id="Group_2">
<path id="Vector_2" d="M58.6704 0.527893H55.7756V16.206H66.8006V13.7371H58.6704V0.527893Z" fill="white"/>
<path id="Vector_3" d="M77.5485 5.7028C76.5928 4.62877 75.2632 4.11267 73.7397 4.11267C70.2771 4.11267 67.7424 6.51181 67.7424 10.2221C67.7424 13.9464 70.2771 16.3595 73.7397 16.3595C75.3602 16.3595 76.7452 15.8015 77.6732 14.6577V16.206H80.3186V4.25216H77.5347V5.7028H77.5485ZM74.0582 13.9603C72.0499 13.9603 70.5402 12.5097 70.5402 10.2221C70.5402 7.93456 72.0499 6.48392 74.0582 6.48392C76.0804 6.48392 77.5901 7.93456 77.5901 10.2221C77.5901 12.5097 76.0804 13.9603 74.0582 13.9603Z" fill="white"/>
<path id="Vector_4" d="M98.9612 4.11267C97.0776 4.11267 95.4709 4.87984 94.5153 6.10731C93.6981 4.76825 92.2438 4.11267 90.5125 4.11267C88.892 4.11267 87.507 4.69851 86.6205 5.77254V4.25216H83.9751V16.206H86.759V10.1384C86.759 7.76718 88.0056 6.55366 89.8477 6.55366C91.5374 6.55366 92.5208 7.58585 92.5208 9.70602V16.206H95.2909V10.1384C95.2909 7.76718 96.5651 6.55366 98.3795 6.55366C100.069 6.55366 101.053 7.58585 101.053 9.70602V16.206H103.837V9.35731C103.823 5.74465 101.828 4.11267 98.9612 4.11267Z" fill="white"/>
<path id="Vector_5" d="M113.975 4.11267C112.355 4.11267 110.97 4.67061 110.042 5.81439V4.25216H107.396V20.558H110.18V14.7554C111.136 15.8573 112.465 16.3734 113.989 16.3734C117.452 16.3734 120.014 13.9603 120.014 10.2361C120 6.52576 117.438 4.11267 113.975 4.11267ZM113.656 13.9603C111.662 13.9603 110.125 12.5097 110.125 10.2221C110.125 7.93456 111.662 6.48392 113.656 6.48392C115.651 6.48392 117.175 7.93456 117.175 10.2221C117.175 12.5097 115.665 13.9603 113.656 13.9603Z" fill="white"/>
<path id="Vector_6" d="M14.626 0.5L8.55956 10.8916L2.38227 0.5H0V16.1781H2.75623V5.92597L7.86704 14.3788H9.15512L14.2798 5.78648L14.2936 16.1781H17.036L17.0083 0.5H14.626Z" fill="white"/>
<path id="Vector_7" d="M50.5125 5.67491C49.5568 4.60087 48.2272 4.08478 46.7037 4.08478C43.241 4.08478 40.7064 6.48392 40.7064 10.1942C40.7064 13.9185 43.241 16.3316 46.7037 16.3316C48.3242 16.3316 49.7092 15.7736 50.6372 14.6298V16.1781H53.2826V4.22426H50.4987V5.67491H50.5125ZM47.0222 13.9324C45.0278 13.9324 43.5042 12.4818 43.5042 10.1942C43.5042 7.90667 45.0139 6.45602 47.0222 6.45602C49.0444 6.45602 50.5541 7.90667 50.5541 10.1942C50.5541 12.4818 49.0444 13.9324 47.0222 13.9324Z" fill="white"/>
<path id="Vector_8" d="M22.3684 5.34013L23.1856 6.76288C23.4626 6.79078 23.7119 6.93026 23.8781 7.16739C25.1939 6.79078 26.4959 7.25108 27.3546 8.38091L28.7258 9.73391L30.5402 8.68777C30.4294 8.45065 30.277 8.14378 30.1662 7.9485C28.4072 4.85194 25.2493 3.94529 22.3684 5.34013ZM19.6122 13.9743C20.3878 15.3273 21.4959 16.2758 22.7978 16.7221L21.5236 11.7425C21.0111 10.4034 21.2743 9.06438 22.2161 8.11589C22.0914 7.85086 22.0914 7.55795 22.2161 7.29292L21.4128 5.88413C18.7396 7.75322 17.9363 11.059 19.6122 13.9743Z" fill="white"/>
<path id="Vector_9" d="M31.3989 12.3562C30.9972 13.8069 29.9308 15.0483 28.338 15.9828C26.3989 17.1127 24.4598 17.3079 22.7978 16.7221L21.5236 11.7425L27.3546 8.353L28.7258 9.706L22.4654 13.3466C23.6288 14.6856 25.4294 14.9367 27.2161 13.8906C28.3657 13.221 29.072 12.3283 29.3629 11.1427C29.4321 10.9056 29.4598 10.6545 29.4737 10.4453L31.3989 12.3562Z" fill="#FFA300"/>
<path id="Vector_10" d="M37.4653 14.03C36.4266 14.03 35.8171 13.4024 35.8171 12.2446V6.5397H39.0027V4.30794H35.8171V1.57404H33.0332V12.3004C33.0332 14.9367 34.529 16.3315 37.1191 16.3315C38.1163 16.3315 39.1274 16.0665 39.7922 15.5225L39.0166 13.5279C38.6011 13.8627 38.0471 14.03 37.4653 14.03Z" fill="white"/>
</g>
</g>
<defs>
<linearGradient id="paint0_linear_2512_4754" x1="27.1842" y1="14.5798" x2="31.4961" y2="22.2523" gradientUnits="userSpaceOnUse">
<stop stop-color="#FFA300" stop-opacity="0.8"/>
<stop offset="1" stop-color="#FFA300" stop-opacity="0"/>
</linearGradient>
</defs>
</svg>
